<mxfile host="app.diagrams.net" modified="2021-01-29T11:13:02.668Z" agent="5.0 (Windows NT 10.0; Win64; x64) AppleWebKit/537.36 (KHTML, like Gecko) Chrome/88.0.4324.96 Safari/537.36 Edg/88.0.705.53" etag="RYC6_wSfweKyxZOhPquc" version="14.2.7" type="github">
  <diagram id="C5RBs43oDa-KdzZeNtuy" name="Page-1">
    <mxGraphModel dx="2858" dy="1134" grid="1" gridSize="10" guides="1" tooltips="1" connect="1" arrows="1" fold="1" page="1" pageScale="1" pageWidth="827" pageHeight="1169" math="0" shadow="0">
      <root>
        <mxCell id="WIyWlLk6GJQsqaUBKTNV-0" />
        <mxCell id="WIyWlLk6GJQsqaUBKTNV-1" parent="WIyWlLk6GJQsqaUBKTNV-0" />
        <mxCell id="xNeEmG6Ac5lIZkzJVNVs-5" style="edgeStyle=orthogonalEdgeStyle;rounded=0;orthogonalLoop=1;jettySize=auto;html=1;exitX=0.5;exitY=0;exitDx=0;exitDy=0;entryX=0.5;entryY=1;entryDx=0;entryDy=0;" edge="1" parent="WIyWlLk6GJQsqaUBKTNV-1" source="WIyWlLk6GJQsqaUBKTNV-6" target="WIyWlLk6GJQsqaUBKTNV-7">
          <mxGeometry relative="1" as="geometry" />
        </mxCell>
        <mxCell id="xNeEmG6Ac5lIZkzJVNVs-7" style="edgeStyle=orthogonalEdgeStyle;rounded=0;orthogonalLoop=1;jettySize=auto;html=1;exitX=1;exitY=0.5;exitDx=0;exitDy=0;entryX=0;entryY=0.5;entryDx=0;entryDy=0;" edge="1" parent="WIyWlLk6GJQsqaUBKTNV-1" source="WIyWlLk6GJQsqaUBKTNV-6" target="WIyWlLk6GJQsqaUBKTNV-10">
          <mxGeometry relative="1" as="geometry">
            <mxPoint x="30" y="530" as="targetPoint" />
          </mxGeometry>
        </mxCell>
        <mxCell id="WIyWlLk6GJQsqaUBKTNV-6" value="&lt;p style=&quot;line-height: 120%&quot;&gt;&lt;span style=&quot;box-sizing: border-box ; color: rgb(51 , 51 , 51) ; font-family: , &amp;#34;blinkmacsystemfont&amp;#34; , &amp;#34;segoe ui&amp;#34; , &amp;#34;helvetica neue&amp;#34; , &amp;#34;helvetica&amp;#34; , &amp;#34;roboto&amp;#34; , &amp;#34;arial&amp;#34; , sans-serif , &amp;#34;apple color emoji&amp;#34; , &amp;#34;segoe ui emoji&amp;#34; , &amp;#34;segoe ui symbol&amp;#34; ; font-size: 16px ; letter-spacing: 0.35px ; text-align: left ; background-color: rgb(255 , 255 , 255)&quot;&gt;B có tồn tại ở bảng&amp;nbsp;&lt;br&gt;&lt;/span&gt;&lt;code style=&quot;box-sizing: border-box ; font-family: &amp;#34;menlo&amp;#34; , &amp;#34;monaco&amp;#34; , &amp;#34;consolas&amp;#34; , &amp;#34;courier new&amp;#34; , monospace ; font-size: 13.6px ; padding: 0.2em 0px ; color: rgb(51 , 51 , 51) ; background-color: rgba(0 , 0 , 0 , 0.04) ; border-radius: 3px ; margin: 0px ; letter-spacing: 0.35px ; text-align: left&quot;&gt;Mai Linh Users&lt;/code&gt;&lt;code style=&quot;box-sizing: border-box ; font-family: &amp;#34;menlo&amp;#34; , &amp;#34;monaco&amp;#34; , &amp;#34;consolas&amp;#34; , &amp;#34;courier new&amp;#34; , monospace ; padding: 0.2em 0px ; color: rgb(51 , 51 , 51) ; border-radius: 3px ; margin: 0px ; letter-spacing: 0.35px ; text-align: left ; font-size: 16px ; background-color: rgb(255 , 255 , 255)&quot;&gt;?&lt;/code&gt;&lt;/p&gt;" style="rhombus;whiteSpace=wrap;html=1;shadow=0;fontFamily=Helvetica;fontSize=12;align=center;strokeWidth=1;spacing=6;spacingTop=-4;" parent="WIyWlLk6GJQsqaUBKTNV-1" vertex="1">
          <mxGeometry x="-430" y="466.25" width="220" height="127.5" as="geometry" />
        </mxCell>
        <mxCell id="WIyWlLk6GJQsqaUBKTNV-7" value="&lt;font style=&quot;font-size: 15px ; line-height: 150%&quot;&gt;Thông báo user chưa đăng nhập&lt;/font&gt;" style="rounded=1;whiteSpace=wrap;html=1;fontSize=12;glass=0;strokeWidth=1;shadow=0;" parent="WIyWlLk6GJQsqaUBKTNV-1" vertex="1">
          <mxGeometry x="-400" y="307" width="160" height="70" as="geometry" />
        </mxCell>
        <mxCell id="xNeEmG6Ac5lIZkzJVNVs-10" style="edgeStyle=orthogonalEdgeStyle;rounded=0;orthogonalLoop=1;jettySize=auto;html=1;exitX=0.5;exitY=0;exitDx=0;exitDy=0;" edge="1" parent="WIyWlLk6GJQsqaUBKTNV-1" source="WIyWlLk6GJQsqaUBKTNV-10" target="WIyWlLk6GJQsqaUBKTNV-11">
          <mxGeometry relative="1" as="geometry" />
        </mxCell>
        <mxCell id="xNeEmG6Ac5lIZkzJVNVs-11" style="edgeStyle=orthogonalEdgeStyle;rounded=0;orthogonalLoop=1;jettySize=auto;html=1;" edge="1" parent="WIyWlLk6GJQsqaUBKTNV-1" source="WIyWlLk6GJQsqaUBKTNV-10" target="34T_L4STtLrGoXiK4q61-2">
          <mxGeometry relative="1" as="geometry" />
        </mxCell>
        <mxCell id="WIyWlLk6GJQsqaUBKTNV-10" value="&lt;font style=&quot;font-size: 15px ; line-height: 150%&quot;&gt;Giá trị&amp;nbsp;&lt;span style=&quot;color: rgb(51 , 51 , 51) ; font-family: &amp;#34;menlo&amp;#34; , &amp;#34;monaco&amp;#34; , &amp;#34;consolas&amp;#34; , &amp;#34;courier new&amp;#34; , monospace ; letter-spacing: 0.35px ; text-align: left&quot;&gt;&lt;span style=&quot;background-color: rgba(0 , 0 , 0 , 0.04)&quot;&gt;is_old&lt;/span&gt;&lt;br&gt;&lt;span style=&quot;background-color: rgb(255 , 255 , 255)&quot;&gt;của user B&lt;/span&gt;&lt;/span&gt;&lt;/font&gt;" style="rhombus;whiteSpace=wrap;html=1;shadow=0;fontFamily=Helvetica;fontSize=12;align=center;strokeWidth=1;spacing=6;spacingTop=-4;" parent="WIyWlLk6GJQsqaUBKTNV-1" vertex="1">
          <mxGeometry x="-91" y="470" width="208" height="120" as="geometry" />
        </mxCell>
        <mxCell id="WIyWlLk6GJQsqaUBKTNV-11" value="&lt;span style=&quot;color: rgb(51 , 51 , 51) ; font-size: 16px ; letter-spacing: 0.35px ; text-align: left ; background-color: rgb(255 , 255 , 255) ; line-height: 150%&quot;&gt;B là user mới&lt;br&gt;và chưa từng&lt;br&gt;nhập mã&lt;/span&gt;" style="rounded=1;whiteSpace=wrap;html=1;fontSize=12;glass=0;strokeWidth=1;shadow=0;" parent="WIyWlLk6GJQsqaUBKTNV-1" vertex="1">
          <mxGeometry x="-72" y="307" width="170" height="80" as="geometry" />
        </mxCell>
        <mxCell id="xNeEmG6Ac5lIZkzJVNVs-12" style="edgeStyle=orthogonalEdgeStyle;rounded=0;orthogonalLoop=1;jettySize=auto;html=1;entryX=0;entryY=0.5;entryDx=0;entryDy=0;" edge="1" parent="WIyWlLk6GJQsqaUBKTNV-1" source="34T_L4STtLrGoXiK4q61-2" target="34T_L4STtLrGoXiK4q61-24">
          <mxGeometry relative="1" as="geometry" />
        </mxCell>
        <mxCell id="xNeEmG6Ac5lIZkzJVNVs-13" style="edgeStyle=orthogonalEdgeStyle;rounded=0;orthogonalLoop=1;jettySize=auto;html=1;entryX=0.5;entryY=1;entryDx=0;entryDy=0;" edge="1" parent="WIyWlLk6GJQsqaUBKTNV-1" source="34T_L4STtLrGoXiK4q61-2" target="34T_L4STtLrGoXiK4q61-18">
          <mxGeometry relative="1" as="geometry" />
        </mxCell>
        <mxCell id="34T_L4STtLrGoXiK4q61-2" value="&lt;p style=&quot;line-height: 150%&quot;&gt;&lt;/p&gt;&lt;div style=&quot;text-align: center ; font-size: 15px&quot;&gt;&lt;font style=&quot;font-size: 15px&quot;&gt;&lt;span style=&quot;box-sizing: border-box ; color: rgb(51 , 51 , 51) ; letter-spacing: 0.35px ; text-align: left ; background-color: rgb(255 , 255 , 255)&quot;&gt;Bảng&amp;nbsp;&lt;/span&gt;&lt;/font&gt;&lt;/div&gt;&lt;div style=&quot;text-align: center ; font-size: 15px&quot;&gt;&lt;font style=&quot;font-size: 15px&quot;&gt;&lt;code style=&quot;box-sizing: border-box ; font-family: &amp;#34;menlo&amp;#34; , &amp;#34;monaco&amp;#34; , &amp;#34;consolas&amp;#34; , &amp;#34;courier new&amp;#34; , monospace ; padding: 0.2em 0px ; color: rgb(51 , 51 , 51) ; background-color: rgba(0 , 0 , 0 , 0.04) ; border-radius: 3px ; margin: 0px ; letter-spacing: 0.35px ; text-align: left&quot;&gt;Mai Linh Referral&lt;/code&gt;&lt;/font&gt;&lt;/div&gt;&lt;div style=&quot;text-align: center ; font-size: 15px&quot;&gt;&lt;font style=&quot;font-size: 15px&quot;&gt;&lt;code style=&quot;box-sizing: border-box ; font-family: &amp;#34;menlo&amp;#34; , &amp;#34;monaco&amp;#34; , &amp;#34;consolas&amp;#34; , &amp;#34;courier new&amp;#34; , monospace ; padding: 0.2em 0px ; color: rgb(51 , 51 , 51) ; border-radius: 3px ; margin: 0px ; letter-spacing: 0.35px ; text-align: left ; background-color: rgb(255 , 255 , 255)&quot;&gt;có &lt;/code&gt;&lt;code style=&quot;box-sizing: border-box ; font-family: &amp;#34;menlo&amp;#34; , &amp;#34;monaco&amp;#34; , &amp;#34;consolas&amp;#34; , &amp;#34;courier new&amp;#34; , monospace ; padding: 0.2em 0px ; color: rgb(51 , 51 , 51) ; background-color: rgba(0 , 0 , 0 , 0.04) ; border-radius: 3px ; margin: 0px ; letter-spacing: 0.35px ; text-align: left&quot;&gt;User B&lt;/code&gt;&lt;/font&gt;&lt;/div&gt;&lt;p&gt;&lt;/p&gt;" style="rhombus;whiteSpace=wrap;html=1;" parent="WIyWlLk6GJQsqaUBKTNV-1" vertex="1">
          <mxGeometry x="220" y="460" width="210" height="140" as="geometry" />
        </mxCell>
        <mxCell id="34T_L4STtLrGoXiK4q61-18" value="&lt;span style=&quot;color: rgb(51 , 51 , 51) ; font-size: 16px ; letter-spacing: 0.35px ; text-align: left ; background-color: rgb(255 , 255 , 255) ; line-height: 150%&quot;&gt;B là user mới đăng ký và đã nhập mã&lt;/span&gt;" style="rounded=1;whiteSpace=wrap;html=1;" parent="WIyWlLk6GJQsqaUBKTNV-1" vertex="1">
          <mxGeometry x="232" y="307" width="186" height="83" as="geometry" />
        </mxCell>
        <mxCell id="34T_L4STtLrGoXiK4q61-24" value="&lt;span style=&quot;color: rgb(51 , 51 , 51) ; font-size: 16px ; letter-spacing: 0.35px ; text-align: left ; background-color: rgb(255 , 255 , 255) ; line-height: 160%&quot;&gt;&amp;nbsp;B là user cũ nên ko có view để nhập mã&lt;/span&gt;" style="rounded=1;whiteSpace=wrap;html=1;" parent="WIyWlLk6GJQsqaUBKTNV-1" vertex="1">
          <mxGeometry x="590" y="485" width="200" height="90" as="geometry" />
        </mxCell>
        <mxCell id="xNeEmG6Ac5lIZkzJVNVs-4" style="edgeStyle=orthogonalEdgeStyle;rounded=0;orthogonalLoop=1;jettySize=auto;html=1;exitX=1;exitY=0.5;exitDx=0;exitDy=0;entryX=0;entryY=0.5;entryDx=0;entryDy=0;" edge="1" parent="WIyWlLk6GJQsqaUBKTNV-1" source="xNeEmG6Ac5lIZkzJVNVs-0" target="WIyWlLk6GJQsqaUBKTNV-6">
          <mxGeometry relative="1" as="geometry" />
        </mxCell>
        <mxCell id="xNeEmG6Ac5lIZkzJVNVs-0" value="&lt;font style=&quot;font-size: 15px ; line-height: 150%&quot;&gt;Nhập SĐT của B&lt;br&gt;vào ô tìm kiếm&lt;/font&gt;" style="rounded=0;whiteSpace=wrap;html=1;" vertex="1" parent="WIyWlLk6GJQsqaUBKTNV-1">
          <mxGeometry x="-630" y="500" width="140" height="60" as="geometry" />
        </mxCell>
        <mxCell id="xNeEmG6Ac5lIZkzJVNVs-2" style="edgeStyle=orthogonalEdgeStyle;rounded=0;orthogonalLoop=1;jettySize=auto;html=1;" edge="1" parent="WIyWlLk6GJQsqaUBKTNV-1" source="xNeEmG6Ac5lIZkzJVNVs-1" target="xNeEmG6Ac5lIZkzJVNVs-0">
          <mxGeometry relative="1" as="geometry" />
        </mxCell>
        <mxCell id="xNeEmG6Ac5lIZkzJVNVs-1" value="&lt;font style=&quot;font-size: 15px&quot;&gt;Bắt đầu&lt;/font&gt;" style="ellipse;whiteSpace=wrap;html=1;" vertex="1" parent="WIyWlLk6GJQsqaUBKTNV-1">
          <mxGeometry x="-780" y="490" width="120" height="80" as="geometry" />
        </mxCell>
        <mxCell id="xNeEmG6Ac5lIZkzJVNVs-6" value="Không" style="text;html=1;strokeColor=none;fillColor=none;align=center;verticalAlign=middle;whiteSpace=wrap;rounded=0;fontStyle=1" vertex="1" parent="WIyWlLk6GJQsqaUBKTNV-1">
          <mxGeometry x="-310" y="400" width="40" height="20" as="geometry" />
        </mxCell>
        <mxCell id="xNeEmG6Ac5lIZkzJVNVs-8" value="Có" style="text;html=1;strokeColor=none;fillColor=none;align=center;verticalAlign=middle;whiteSpace=wrap;rounded=0;fontStyle=1" vertex="1" parent="WIyWlLk6GJQsqaUBKTNV-1">
          <mxGeometry x="-166" y="501" width="40" height="20" as="geometry" />
        </mxCell>
        <mxCell id="xNeEmG6Ac5lIZkzJVNVs-14" value="False" style="text;html=1;strokeColor=none;fillColor=none;align=center;verticalAlign=middle;whiteSpace=wrap;rounded=0;fontStyle=1" vertex="1" parent="WIyWlLk6GJQsqaUBKTNV-1">
          <mxGeometry x="30" y="420" width="40" height="20" as="geometry" />
        </mxCell>
        <mxCell id="xNeEmG6Ac5lIZkzJVNVs-15" value="True" style="text;html=1;strokeColor=none;fillColor=none;align=center;verticalAlign=middle;whiteSpace=wrap;rounded=0;fontStyle=1" vertex="1" parent="WIyWlLk6GJQsqaUBKTNV-1">
          <mxGeometry x="140" y="500" width="40" height="20" as="geometry" />
        </mxCell>
        <mxCell id="xNeEmG6Ac5lIZkzJVNVs-16" value="Có" style="text;html=1;strokeColor=none;fillColor=none;align=center;verticalAlign=middle;whiteSpace=wrap;rounded=0;fontStyle=1" vertex="1" parent="WIyWlLk6GJQsqaUBKTNV-1">
          <mxGeometry x="340" y="420" width="40" height="20" as="geometry" />
        </mxCell>
        <mxCell id="xNeEmG6Ac5lIZkzJVNVs-17" value="Không" style="text;html=1;strokeColor=none;fillColor=none;align=center;verticalAlign=middle;whiteSpace=wrap;rounded=0;fontStyle=1" vertex="1" parent="WIyWlLk6GJQsqaUBKTNV-1">
          <mxGeometry x="493" y="500" width="40" height="20" as="geometry" />
        </mxCell>
      </root>
    </mxGraphModel>
  </diagram>
</mxfile>
